<?xml version="1.0" encoding="UTF-8"?>
<svg id="Layer_1" data-name="Layer 1" xmlns="http://www.w3.org/2000/svg" viewBox="0 0 500 500">
  <defs>
    <style>
      .cls-1 {
        font-size: 64.37px;
      }

      .cls-1, .cls-2 {
        fill: #fdc689;
        font-family: MyriadPro-Regular, 'Myriad Pro';
      }

      .cls-3 {
        letter-spacing: .44em;
      }

      .cls-4 {
        letter-spacing: .45em;
      }

      .cls-5 {
        letter-spacing: .46em;
      }

      .cls-6 {
        letter-spacing: .43em;
      }

      .cls-7 {
        fill: none;
        stroke: #fdc689;
        stroke-miterlimit: 10;
        stroke-width: .1px;
      }

      .cls-8 {
        letter-spacing: .41em;
      }

      .cls-9 {
        letter-spacing: .45em;
      }

      .cls-2 {
        font-size: 10.3px;
      }

      .cls-10 {
        letter-spacing: .41em;
      }

      .cls-11 {
        letter-spacing: .44em;
      }

      .cls-12 {
        fill: #231f20;
        stroke-width: 0px;
      }

      .cls-13 {
        letter-spacing: .38em;
      }

      .cls-14 {
        letter-spacing: .45em;
      }
    </style>
  </defs>
  <rect class="cls-12" width="500" height="500"/>
  <g>
    <g>
      <circle class="cls-7" cx="109.67" cy="249.98" r="59.52"/>
      <ellipse class="cls-7" cx="109.62" cy="249.92" rx="57.41" ry="58.26" transform="translate(-163.2 256.79) rotate(-67.76)"/>
      <ellipse class="cls-7" cx="109.56" cy="249.86" rx="55.3" ry="57" transform="translate(-163.14 258.02) rotate(-68.04)"/>
      <ellipse class="cls-7" cx="109.51" cy="249.8" rx="53.19" ry="55.74" transform="translate(-163.07 259.32) rotate(-68.33)"/>
      <ellipse class="cls-7" cx="109.45" cy="249.74" rx="51.09" ry="54.5" transform="translate(-162.99 260.72) rotate(-68.64)"/>
      <ellipse class="cls-7" cx="109.4" cy="249.68" rx="49" ry="53.25" transform="translate(-162.9 262.21) rotate(-68.97)"/>
      <ellipse class="cls-7" cx="109.34" cy="249.62" rx="46.92" ry="52.02" transform="translate(-162.8 263.8) rotate(-69.33)"/>
      <ellipse class="cls-7" cx="109.29" cy="249.56" rx="44.84" ry="50.79" transform="translate(-162.68 265.51) rotate(-69.71)"/>
      <ellipse class="cls-7" cx="109.23" cy="249.5" rx="42.77" ry="49.58" transform="translate(-162.54 267.35) rotate(-70.11)"/>
      <ellipse class="cls-7" cx="109.18" cy="249.44" rx="40.71" ry="48.37" transform="translate(-162.38 269.32) rotate(-70.55)"/>
      <ellipse class="cls-7" cx="109.13" cy="249.38" rx="38.67" ry="47.17" transform="translate(-162.19 271.45) rotate(-71.02)"/>
      <ellipse class="cls-7" cx="109.07" cy="249.32" rx="36.63" ry="45.99" transform="translate(-161.96 273.75) rotate(-71.52)"/>
      <ellipse class="cls-7" cx="109.02" cy="249.26" rx="34.61" ry="44.82" transform="translate(-161.7 276.24) rotate(-72.07)"/>
      <ellipse class="cls-7" cx="108.96" cy="249.2" rx="32.61" ry="43.66" transform="translate(-161.38 278.94) rotate(-72.66)"/>
      <ellipse class="cls-7" cx="108.91" cy="249.14" rx="30.62" ry="42.53" transform="translate(-161.01 281.88) rotate(-73.3)"/>
      <ellipse class="cls-7" cx="108.85" cy="249.08" rx="28.65" ry="41.41" transform="translate(-160.58 285.07) rotate(-74)"/>
      <ellipse class="cls-7" cx="108.8" cy="249.02" rx="26.71" ry="40.32" transform="translate(-160.06 288.57) rotate(-74.77)"/>
      <ellipse class="cls-7" cx="108.74" cy="248.96" rx="24.79" ry="39.25" transform="translate(-159.43 292.38) rotate(-75.6)"/>
      <ellipse class="cls-7" cx="108.69" cy="248.9" rx="22.9" ry="38.21" transform="translate(-158.69 296.57) rotate(-76.52)"/>
      <ellipse class="cls-7" cx="108.63" cy="248.84" rx="21.04" ry="37.21" transform="translate(-157.79 301.16) rotate(-77.53)"/>
      <ellipse class="cls-7" cx="108.58" cy="248.78" rx="19.23" ry="36.24" transform="translate(-156.71 306.21) rotate(-78.64)"/>
      <ellipse class="cls-7" cx="108.52" cy="248.72" rx="17.46" ry="35.33" transform="translate(-155.41 311.76) rotate(-79.86)"/>
      <ellipse class="cls-7" cx="108.47" cy="248.66" rx="15.75" ry="34.46" transform="translate(-153.84 317.87) rotate(-81.21)"/>
      <ellipse class="cls-7" cx="108.41" cy="248.6" rx="14.09" ry="33.66" transform="translate(-151.93 324.59) rotate(-82.71)"/>
      <ellipse class="cls-7" cx="108.36" cy="248.54" rx="12.51" ry="32.93" transform="translate(-149.62 331.96) rotate(-84.36)"/>
      <ellipse class="cls-7" cx="108.31" cy="248.48" rx="11.02" ry="32.28" transform="translate(-146.82 340.02) rotate(-86.19)"/>
      <ellipse class="cls-7" cx="108.25" cy="248.42" rx="9.61" ry="31.73" transform="translate(-143.46 348.77) rotate(-88.19)"/>
      <ellipse class="cls-7" cx="108.2" cy="248.36" rx="31.29" ry="8.32" transform="translate(-1.66 .73) rotate(-.38)"/>
      <ellipse class="cls-7" cx="108.14" cy="248.3" rx="30.98" ry="7.16" transform="translate(-11.82 5.49) rotate(-2.76)"/>
      <ellipse class="cls-7" cx="108.09" cy="248.24" rx="30.81" ry="6.14" transform="translate(-22.49 11.06) rotate(-5.31)"/>
      <ellipse class="cls-7" cx="108.03" cy="248.18" rx="30.79" ry="5.27" transform="translate(-33.49 17.45) rotate(-8)"/>
      <ellipse class="cls-7" cx="107.98" cy="248.12" rx="30.94" ry="4.57" transform="translate(-44.6 24.64) rotate(-10.81)"/>
      <ellipse class="cls-7" cx="107.92" cy="248.06" rx="31.26" ry="4.04" transform="translate(-55.57 32.53) rotate(-13.67)"/>
      <ellipse class="cls-7" cx="107.87" cy="248" rx="31.77" ry="3.69" transform="translate(-66.14 40.97) rotate(-16.54)"/>
      <ellipse class="cls-7" cx="107.81" cy="247.94" rx="32.44" ry="3.52" transform="translate(-76.08 49.75) rotate(-19.36)"/>
      <ellipse class="cls-7" cx="107.76" cy="247.88" rx="33.29" ry="3.51" transform="translate(-85.24 58.65) rotate(-22.07)"/>
      <ellipse class="cls-7" cx="107.7" cy="247.82" rx="34.29" ry="3.66" transform="translate(-93.51 67.47) rotate(-24.64)"/>
      <ellipse class="cls-7" cx="107.65" cy="247.76" rx="35.43" ry="3.96" transform="translate(-100.87 76.03) rotate(-27.04)"/>
      <ellipse class="cls-7" cx="107.59" cy="247.7" rx="36.71" ry="4.38" transform="translate(-107.34 84.19) rotate(-29.26)"/>
      <ellipse class="cls-7" cx="107.54" cy="247.64" rx="38.09" ry="4.92" transform="translate(-112.97 91.87) rotate(-31.29)"/>
      <ellipse class="cls-7" cx="107.48" cy="247.58" rx="39.58" ry="5.55" transform="translate(-117.86 99.02) rotate(-33.14)"/>
      <ellipse class="cls-7" cx="107.43" cy="247.52" rx="41.15" ry="6.27" transform="translate(-122.08 105.64) rotate(-34.81)"/>
      <ellipse class="cls-7" cx="107.38" cy="247.46" rx="42.79" ry="7.06" transform="translate(-125.73 111.72) rotate(-36.33)"/>
      <ellipse class="cls-7" cx="107.32" cy="247.4" rx="44.5" ry="7.92" transform="translate(-128.89 117.3) rotate(-37.7)"/>
      <ellipse class="cls-7" cx="107.27" cy="247.34" rx="46.26" ry="8.83" transform="translate(-131.63 122.4) rotate(-38.95)"/>
      <ellipse class="cls-7" cx="107.21" cy="247.28" rx="48.07" ry="9.79" transform="translate(-134.01 127.07) rotate(-40.07)"/>
      <ellipse class="cls-7" cx="107.16" cy="247.22" rx="49.92" ry="10.78" transform="translate(-136.09 131.34) rotate(-41.09)"/>
      <ellipse class="cls-7" cx="107.1" cy="247.16" rx="51.8" ry="11.82" transform="translate(-137.91 135.24) rotate(-42.02)"/>
      <ellipse class="cls-7" cx="107.05" cy="247.1" rx="53.72" ry="12.88" transform="translate(-139.51 138.82) rotate(-42.87)"/>
      <ellipse class="cls-7" cx="106.99" cy="247.04" rx="55.66" ry="13.97" transform="translate(-140.92 142.1) rotate(-43.64)"/>
      <ellipse class="cls-7" cx="106.94" cy="246.97" rx="57.62" ry="15.09" transform="translate(-142.18 145.12) rotate(-44.35)"/>
      <ellipse class="cls-7" cx="106.88" cy="246.91" rx="59.61" ry="16.22" transform="translate(-143.29 147.9) rotate(-45)"/>
      <ellipse class="cls-7" cx="107.08" cy="247.11" rx="59.58" ry="16.21" transform="translate(-143.75 149.05) rotate(-45.22)"/>
      <ellipse class="cls-7" cx="107.27" cy="247.31" rx="59.56" ry="16.21" transform="translate(-144.2 150.2) rotate(-45.44)"/>
      <ellipse class="cls-7" cx="107.47" cy="247.5" rx="59.54" ry="16.2" transform="translate(-144.65 151.36) rotate(-45.65)"/>
      <ellipse class="cls-7" cx="107.66" cy="247.7" rx="59.52" ry="16.2" transform="translate(-145.1 152.52) rotate(-45.87)"/>
      <ellipse class="cls-7" cx="107.86" cy="247.9" rx="59.51" ry="16.19" transform="translate(-145.54 153.68) rotate(-46.09)"/>
      <ellipse class="cls-7" cx="108.05" cy="248.09" rx="59.49" ry="16.19" transform="translate(-145.98 154.85) rotate(-46.31)"/>
      <ellipse class="cls-7" cx="108.25" cy="248.29" rx="59.47" ry="16.18" transform="translate(-146.42 156.03) rotate(-46.53)"/>
      <ellipse class="cls-7" cx="108.44" cy="248.49" rx="59.46" ry="16.18" transform="translate(-146.85 157.2) rotate(-46.75)"/>
      <ellipse class="cls-7" cx="108.63" cy="248.68" rx="59.44" ry="16.17" transform="translate(-147.28 158.38) rotate(-46.97)"/>
      <ellipse class="cls-7" cx="108.83" cy="248.88" rx="59.43" ry="16.17" transform="translate(-147.7 159.57) rotate(-47.19)"/>
      <ellipse class="cls-7" cx="109.02" cy="249.08" rx="59.41" ry="16.17" transform="translate(-148.13 160.76) rotate(-47.41)"/>
      <ellipse class="cls-7" cx="109.22" cy="249.27" rx="59.4" ry="16.16" transform="translate(-148.54 161.95) rotate(-47.62)"/>
      <ellipse class="cls-7" cx="109.41" cy="249.47" rx="59.39" ry="16.16" transform="translate(-148.96 163.15) rotate(-47.84)"/>
      <ellipse class="cls-7" cx="109.61" cy="249.67" rx="59.38" ry="16.16" transform="translate(-149.37 164.35) rotate(-48.06)"/>
      <ellipse class="cls-7" cx="109.8" cy="249.86" rx="59.37" ry="16.16" transform="translate(-149.77 165.55) rotate(-48.28)"/>
      <ellipse class="cls-7" cx="110" cy="250.06" rx="59.36" ry="16.15" transform="translate(-150.18 166.76) rotate(-48.5)"/>
      <ellipse class="cls-7" cx="110.19" cy="250.26" rx="59.35" ry="16.15" transform="translate(-150.58 167.97) rotate(-48.72)"/>
      <ellipse class="cls-7" cx="110.39" cy="250.45" rx="59.35" ry="16.15" transform="translate(-150.97 169.19) rotate(-48.94)"/>
      <ellipse class="cls-7" cx="110.58" cy="250.65" rx="59.34" ry="16.15" transform="translate(-151.36 170.41) rotate(-49.16)"/>
      <ellipse class="cls-7" cx="110.78" cy="250.85" rx="59.33" ry="16.15" transform="translate(-151.75 171.63) rotate(-49.38)"/>
      <ellipse class="cls-7" cx="110.97" cy="251.04" rx="59.33" ry="16.14" transform="translate(-152.13 172.85) rotate(-49.6)"/>
      <ellipse class="cls-7" cx="111.17" cy="251.24" rx="59.33" ry="16.14" transform="translate(-152.51 174.08) rotate(-49.82)"/>
      <ellipse class="cls-7" cx="111.36" cy="251.44" rx="59.32" ry="16.14" transform="translate(-152.89 175.31) rotate(-50.04)"/>
      <ellipse class="cls-7" cx="111.55" cy="251.63" rx="59.32" ry="16.14" transform="translate(-153.26 176.55) rotate(-50.26)"/>
      <ellipse class="cls-7" cx="111.75" cy="251.83" rx="59.32" ry="16.14" transform="translate(-153.63 177.79) rotate(-50.48)"/>
      <ellipse class="cls-7" cx="111.94" cy="252.03" rx="59.32" ry="16.14" transform="translate(-153.99 179.03) rotate(-50.7)"/>
      <ellipse class="cls-7" cx="112.14" cy="252.22" rx="59.32" ry="16.14" transform="translate(-154.35 180.28) rotate(-50.92)"/>
      <ellipse class="cls-7" cx="112.33" cy="252.42" rx="59.32" ry="16.14" transform="translate(-154.7 181.52) rotate(-51.14)"/>
      <ellipse class="cls-7" cx="112.53" cy="252.62" rx="59.33" ry="16.14" transform="translate(-155.05 182.78) rotate(-51.36)"/>
      <ellipse class="cls-7" cx="112.72" cy="252.81" rx="59.33" ry="16.14" transform="translate(-155.4 184.03) rotate(-51.58)"/>
      <ellipse class="cls-7" cx="112.92" cy="253.01" rx="59.33" ry="16.15" transform="translate(-155.74 185.29) rotate(-51.8)"/>
      <ellipse class="cls-7" cx="113.11" cy="253.21" rx="59.34" ry="16.15" transform="translate(-156.08 186.55) rotate(-52.02)"/>
      <ellipse class="cls-7" cx="113.31" cy="253.4" rx="59.35" ry="16.15" transform="translate(-156.42 187.81) rotate(-52.24)"/>
      <ellipse class="cls-7" cx="113.5" cy="253.6" rx="59.35" ry="16.15" transform="translate(-156.74 189.08) rotate(-52.46)"/>
      <ellipse class="cls-7" cx="113.7" cy="253.8" rx="59.36" ry="16.15" transform="translate(-157.07 190.35) rotate(-52.68)"/>
      <ellipse class="cls-7" cx="113.89" cy="253.99" rx="59.37" ry="16.16" transform="translate(-157.39 191.62) rotate(-52.9)"/>
      <ellipse class="cls-7" cx="114.08" cy="254.19" rx="59.38" ry="16.16" transform="translate(-157.71 192.89) rotate(-53.12)"/>
      <ellipse class="cls-7" cx="114.28" cy="254.39" rx="59.39" ry="16.16" transform="translate(-158.02 194.17) rotate(-53.34)"/>
      <ellipse class="cls-7" cx="114.47" cy="254.58" rx="59.4" ry="16.16" transform="translate(-158.33 195.45) rotate(-53.56)"/>
      <ellipse class="cls-7" cx="114.67" cy="254.78" rx="59.41" ry="16.17" transform="translate(-158.63 196.73) rotate(-53.78)"/>
      <ellipse class="cls-7" cx="114.86" cy="254.98" rx="59.43" ry="16.17" transform="translate(-158.93 198.02) rotate(-54)"/>
      <ellipse class="cls-7" cx="115.06" cy="255.17" rx="59.44" ry="16.17" transform="translate(-159.22 199.3) rotate(-54.22)"/>
      <ellipse class="cls-7" cx="115.25" cy="255.37" rx="59.46" ry="16.18" transform="translate(-159.51 200.59) rotate(-54.44)"/>
      <ellipse class="cls-7" cx="115.45" cy="255.57" rx="59.47" ry="16.18" transform="translate(-159.8 201.89) rotate(-54.65)"/>
      <ellipse class="cls-7" cx="115.64" cy="255.76" rx="59.49" ry="16.19" transform="translate(-160.08 203.18) rotate(-54.87)"/>
      <ellipse class="cls-7" cx="115.84" cy="255.96" rx="59.51" ry="16.19" transform="translate(-160.36 204.48) rotate(-55.09)"/>
      <ellipse class="cls-7" cx="116.03" cy="256.16" rx="59.52" ry="16.2" transform="translate(-160.63 205.77) rotate(-55.31)"/>
      <ellipse class="cls-7" cx="116.23" cy="256.35" rx="59.54" ry="16.2" transform="translate(-160.9 207.08) rotate(-55.53)"/>
      <ellipse class="cls-7" cx="116.42" cy="256.55" rx="59.56" ry="16.21" transform="translate(-161.16 208.38) rotate(-55.75)"/>
      <ellipse class="cls-7" cx="116.62" cy="256.75" rx="59.58" ry="16.21" transform="translate(-161.42 209.68) rotate(-55.96)"/>
      <ellipse class="cls-7" cx="116.81" cy="256.94" rx="59.61" ry="16.22" transform="translate(-161.67 210.99) rotate(-56.18)"/>
      <ellipse class="cls-7" cx="116.62" cy="256.84" rx="58.96" ry="16.04" transform="translate(-162.45 215.74) rotate(-57.2)"/>
      <ellipse class="cls-7" cx="116.42" cy="256.74" rx="58.34" ry="15.87" transform="translate(-163.15 220.61) rotate(-58.24)"/>
      <ellipse class="cls-7" cx="116.23" cy="256.63" rx="57.73" ry="15.71" transform="translate(-163.78 225.58) rotate(-59.31)"/>
      <ellipse class="cls-7" cx="116.03" cy="256.53" rx="57.15" ry="15.55" transform="translate(-164.33 230.68) rotate(-60.39)"/>
      <ellipse class="cls-7" cx="115.84" cy="256.43" rx="56.58" ry="15.4" transform="translate(-164.79 235.88) rotate(-61.5)"/>
      <ellipse class="cls-7" cx="115.65" cy="256.32" rx="56.04" ry="15.25" transform="translate(-165.15 241.18) rotate(-62.63)"/>
      <ellipse class="cls-7" cx="115.45" cy="256.22" rx="55.52" ry="15.11" transform="translate(-165.41 246.6) rotate(-63.78)"/>
      <ellipse class="cls-7" cx="115.26" cy="256.12" rx="55.02" ry="14.97" transform="translate(-165.57 252.11) rotate(-64.95)"/>
      <ellipse class="cls-7" cx="115.07" cy="256.02" rx="54.55" ry="14.84" transform="translate(-165.61 257.72) rotate(-66.15)"/>
      <ellipse class="cls-7" cx="114.87" cy="255.91" rx="54.1" ry="14.72" transform="translate(-165.54 263.43) rotate(-67.36)"/>
      <ellipse class="cls-7" cx="114.68" cy="255.81" rx="53.68" ry="14.61" transform="translate(-165.34 269.22) rotate(-68.59)"/>
      <ellipse class="cls-7" cx="114.48" cy="255.71" rx="53.28" ry="14.5" transform="translate(-165.01 275.08) rotate(-69.85)"/>
      <ellipse class="cls-7" cx="114.29" cy="255.6" rx="52.9" ry="14.4" transform="translate(-164.54 281.02) rotate(-71.12)"/>
      <ellipse class="cls-7" cx="114.1" cy="255.5" rx="52.56" ry="14.3" transform="translate(-163.94 287.03) rotate(-72.41)"/>
      <ellipse class="cls-7" cx="113.9" cy="255.4" rx="52.24" ry="14.21" transform="translate(-163.19 293.09) rotate(-73.71)"/>
      <ellipse class="cls-7" cx="113.71" cy="255.29" rx="51.94" ry="14.13" transform="translate(-162.29 299.21) rotate(-75.03)"/>
      <ellipse class="cls-7" cx="113.52" cy="255.19" rx="51.68" ry="14.06" transform="translate(-161.24 305.35) rotate(-76.37)"/>
      <ellipse class="cls-7" cx="113.32" cy="255.09" rx="51.44" ry="14" transform="translate(-160.04 311.53) rotate(-77.71)"/>
      <ellipse class="cls-7" cx="113.13" cy="254.98" rx="51.23" ry="13.94" transform="translate(-158.68 317.73) rotate(-79.07)"/>
      <ellipse class="cls-7" cx="112.93" cy="254.88" rx="51.05" ry="13.89" transform="translate(-157.16 323.93) rotate(-80.44)"/>
      <ellipse class="cls-7" cx="112.74" cy="254.78" rx="50.9" ry="13.85" transform="translate(-155.48 330.12) rotate(-81.82)"/>
      <ellipse class="cls-7" cx="112.55" cy="254.67" rx="50.78" ry="13.82" transform="translate(-153.65 336.31) rotate(-83.21)"/>
      <ellipse class="cls-7" cx="112.35" cy="254.57" rx="50.69" ry="13.79" transform="translate(-151.66 342.46) rotate(-84.6)"/>
      <ellipse class="cls-7" cx="112.16" cy="254.47" rx="50.63" ry="13.78" transform="translate(-149.52 348.57) rotate(-85.99)"/>
      <ellipse class="cls-7" cx="111.97" cy="254.36" rx="50.6" ry="13.77" transform="translate(-147.23 354.64) rotate(-87.39)"/>
      <ellipse class="cls-7" cx="111.77" cy="254.26" rx="50.6" ry="13.77" transform="translate(-144.79 360.64) rotate(-88.79)"/>
      <ellipse class="cls-7" cx="111.58" cy="254.16" rx="13.78" ry="50.63" transform="translate(-.84 .37) rotate(-.19)"/>
      <ellipse class="cls-7" cx="111.38" cy="254.06" rx="13.79" ry="50.69" transform="translate(-6.98 3.18) rotate(-1.58)"/>
      <ellipse class="cls-7" cx="111.19" cy="253.95" rx="13.82" ry="50.78" transform="translate(-13.04 6.12) rotate(-2.98)"/>
      <ellipse class="cls-7" cx="111" cy="253.85" rx="13.85" ry="50.9" transform="translate(-18.99 9.18) rotate(-4.36)"/>
      <ellipse class="cls-7" cx="110.8" cy="253.75" rx="13.89" ry="51.05" transform="translate(-24.82 12.35) rotate(-5.74)"/>
      <ellipse class="cls-7" cx="110.61" cy="253.64" rx="13.94" ry="51.23" transform="translate(-30.54 15.64) rotate(-7.11)"/>
      <ellipse class="cls-7" cx="110.42" cy="253.54" rx="14" ry="51.44" transform="translate(-36.14 19.03) rotate(-8.47)"/>
      <ellipse class="cls-7" cx="110.22" cy="253.44" rx="14.06" ry="51.68" transform="translate(-41.6 22.5) rotate(-9.82)"/>
      <ellipse class="cls-7" cx="110.03" cy="253.33" rx="14.13" ry="51.94" transform="translate(-46.92 26.06) rotate(-11.15)"/>
      <ellipse class="cls-7" cx="109.83" cy="253.23" rx="14.21" ry="52.24" transform="translate(-52.09 29.69) rotate(-12.47)"/>
      <ellipse class="cls-7" cx="109.64" cy="253.13" rx="14.3" ry="52.56" transform="translate(-57.12 33.39) rotate(-13.78)"/>
      <ellipse class="cls-7" cx="109.45" cy="253.02" rx="14.4" ry="52.9" transform="translate(-62 37.14) rotate(-15.06)"/>
      <ellipse class="cls-7" cx="109.25" cy="252.92" rx="14.5" ry="53.28" transform="translate(-66.73 40.94) rotate(-16.34)"/>
      <ellipse class="cls-7" cx="109.06" cy="252.82" rx="14.61" ry="53.68" transform="translate(-71.3 44.77) rotate(-17.59)"/>
      <ellipse class="cls-7" cx="108.87" cy="252.71" rx="14.72" ry="54.1" transform="translate(-75.71 48.64) rotate(-18.82)"/>
      <ellipse class="cls-7" cx="108.67" cy="252.61" rx="14.84" ry="54.55" transform="translate(-79.97 52.52) rotate(-20.04)"/>
      <ellipse class="cls-7" cx="108.48" cy="252.51" rx="14.97" ry="55.02" transform="translate(-84.07 56.41) rotate(-21.23)"/>
      <ellipse class="cls-7" cx="108.28" cy="252.4" rx="15.11" ry="55.52" transform="translate(-88.02 60.31) rotate(-22.4)"/>
      <ellipse class="cls-7" cx="108.09" cy="252.3" rx="15.25" ry="56.04" transform="translate(-91.81 64.21) rotate(-23.55)"/>
      <ellipse class="cls-7" cx="107.9" cy="252.2" rx="15.4" ry="56.58" transform="translate(-95.46 68.1) rotate(-24.68)"/>
      <ellipse class="cls-7" cx="107.7" cy="252.1" rx="15.55" ry="57.15" transform="translate(-98.95 71.97) rotate(-25.79)"/>
      <ellipse class="cls-7" cx="107.51" cy="251.99" rx="15.71" ry="57.73" transform="translate(-102.3 75.82) rotate(-26.88)"/>
      <ellipse class="cls-7" cx="107.32" cy="251.89" rx="15.87" ry="58.34" transform="translate(-105.51 79.64) rotate(-27.94)"/>
      <ellipse class="cls-7" cx="107.12" cy="251.79" rx="16.04" ry="58.96" transform="translate(-108.58 83.43) rotate(-28.98)"/>
      <ellipse class="cls-7" cx="106.93" cy="251.68" rx="16.22" ry="59.61" transform="translate(-111.52 87.18) rotate(-30)"/>
      <ellipse class="cls-7" cx="106.97" cy="251.65" rx="16.18" ry="59.45" transform="translate(-109.87 85.06) rotate(-29.44)"/>
      <ellipse class="cls-7" cx="107.02" cy="251.62" rx="16.14" ry="59.3" transform="translate(-108.19 82.95) rotate(-28.87)"/>
      <ellipse class="cls-7" cx="107.06" cy="251.58" rx="16.1" ry="59.16" transform="translate(-106.48 80.83) rotate(-28.3)"/>
      <ellipse class="cls-7" cx="107.11" cy="251.55" rx="16.06" ry="59.03" transform="translate(-104.75 78.73) rotate(-27.73)"/>
      <ellipse class="cls-7" cx="107.15" cy="251.52" rx="16.03" ry="58.89" transform="translate(-102.99 76.63) rotate(-27.16)"/>
      <ellipse class="cls-7" cx="107.2" cy="251.48" rx="15.99" ry="58.77" transform="translate(-101.2 74.54) rotate(-26.58)"/>
      <ellipse class="cls-7" cx="107.25" cy="251.45" rx="15.96" ry="58.65" transform="translate(-99.38 72.46) rotate(-26)"/>
      <ellipse class="cls-7" cx="107.29" cy="251.42" rx="15.93" ry="58.54" transform="translate(-97.53 70.39) rotate(-25.42)"/>
      <ellipse class="cls-7" cx="107.34" cy="251.39" rx="15.9" ry="58.43" transform="translate(-95.66 68.33) rotate(-24.84)"/>
      <ellipse class="cls-7" cx="107.38" cy="251.35" rx="15.87" ry="58.33" transform="translate(-93.76 66.28) rotate(-24.25)"/>
      <ellipse class="cls-7" cx="107.43" cy="251.32" rx="15.85" ry="58.24" transform="translate(-91.84 64.25) rotate(-23.66)"/>
      <ellipse class="cls-7" cx="107.47" cy="251.29" rx="15.82" ry="58.15" transform="translate(-89.89 62.22) rotate(-23.07)"/>
      <ellipse class="cls-7" cx="107.52" cy="251.25" rx="15.8" ry="58.07" transform="translate(-87.91 60.21) rotate(-22.48)"/>
      <ellipse class="cls-7" cx="107.56" cy="251.22" rx="15.78" ry="57.99" transform="translate(-85.91 58.22) rotate(-21.89)"/>
      <ellipse class="cls-7" cx="107.61" cy="251.19" rx="15.76" ry="57.92" transform="translate(-83.88 56.23) rotate(-21.3)"/>
      <ellipse class="cls-7" cx="107.65" cy="251.15" rx="15.74" ry="57.86" transform="translate(-81.83 54.27) rotate(-20.7)"/>
      <ellipse class="cls-7" cx="107.7" cy="251.12" rx="15.73" ry="57.8" transform="translate(-79.75 52.32) rotate(-20.1)"/>
      <ellipse class="cls-7" cx="107.74" cy="251.09" rx="15.72" ry="57.75" transform="translate(-77.66 50.39) rotate(-19.51)"/>
      <ellipse class="cls-7" cx="107.79" cy="251.06" rx="15.7" ry="57.71" transform="translate(-75.54 48.47) rotate(-18.91)"/>
      <ellipse class="cls-7" cx="107.84" cy="251.02" rx="15.69" ry="57.67" transform="translate(-73.39 46.58) rotate(-18.31)"/>
      <ellipse class="cls-7" cx="107.88" cy="250.99" rx="15.68" ry="57.64" transform="translate(-71.23 44.7) rotate(-17.71)"/>
      <ellipse class="cls-7" cx="107.93" cy="250.96" rx="15.68" ry="57.61" transform="translate(-69.04 42.85) rotate(-17.11)"/>
      <ellipse class="cls-7" cx="107.97" cy="250.92" rx="15.67" ry="57.59" transform="translate(-66.84 41.01) rotate(-16.5)"/>
      <ellipse class="cls-7" cx="108.02" cy="250.89" rx="15.67" ry="57.58" transform="translate(-64.61 39.2) rotate(-15.9)"/>
      <ellipse class="cls-7" cx="108.06" cy="250.86" rx="15.67" ry="57.58" transform="translate(-62.37 37.41) rotate(-15.3)"/>
      <ellipse class="cls-7" cx="108.11" cy="250.82" rx="15.67" ry="57.58" transform="translate(-60.11 35.64) rotate(-14.7)"/>
      <ellipse class="cls-7" cx="108.15" cy="250.79" rx="15.67" ry="57.58" transform="translate(-57.83 33.89) rotate(-14.1)"/>
      <ellipse class="cls-7" cx="108.2" cy="250.76" rx="15.67" ry="57.59" transform="translate(-55.53 32.17) rotate(-13.5)"/>
      <ellipse class="cls-7" cx="108.24" cy="250.73" rx="15.68" ry="57.61" transform="translate(-53.22 30.48) rotate(-12.89)"/>
      <ellipse class="cls-7" cx="108.29" cy="250.69" rx="15.68" ry="57.64" transform="translate(-50.89 28.8) rotate(-12.29)"/>
      <ellipse class="cls-7" cx="108.33" cy="250.66" rx="15.69" ry="57.67" transform="translate(-48.55 27.16) rotate(-11.69)"/>
      <ellipse class="cls-7" cx="108.38" cy="250.63" rx="15.7" ry="57.71" transform="translate(-46.19 25.53) rotate(-11.09)"/>
      <ellipse class="cls-7" cx="108.43" cy="250.59" rx="15.72" ry="57.75" transform="translate(-43.83 23.94) rotate(-10.49)"/>
      <ellipse class="cls-7" cx="108.47" cy="250.56" rx="15.73" ry="57.8" transform="translate(-41.45 22.37) rotate(-9.9)"/>
      <ellipse class="cls-7" cx="108.52" cy="250.53" rx="15.74" ry="57.86" transform="translate(-39.06 20.83) rotate(-9.3)"/>
      <ellipse class="cls-7" cx="108.56" cy="250.49" rx="15.76" ry="57.92" transform="translate(-36.66 19.31) rotate(-8.7)"/>
      <ellipse class="cls-7" cx="108.61" cy="250.46" rx="15.78" ry="57.99" transform="translate(-34.25 17.83) rotate(-8.11)"/>
      <ellipse class="cls-7" cx="108.65" cy="250.43" rx="15.8" ry="58.07" transform="translate(-31.83 16.37) rotate(-7.52)"/>
      <ellipse class="cls-7" cx="108.7" cy="250.4" rx="15.82" ry="58.15" transform="translate(-29.4 14.94) rotate(-6.93)"/>
      <ellipse class="cls-7" cx="108.74" cy="250.36" rx="15.85" ry="58.24" transform="translate(-26.97 13.53) rotate(-6.34)"/>
      <ellipse class="cls-7" cx="108.79" cy="250.33" rx="15.87" ry="58.33" transform="translate(-24.53 12.16) rotate(-5.75)"/>
      <ellipse class="cls-7" cx="108.83" cy="250.3" rx="15.9" ry="58.43" transform="translate(-22.09 10.81) rotate(-5.16)"/>
      <ellipse class="cls-7" cx="108.88" cy="250.26" rx="15.93" ry="58.54" transform="translate(-19.64 9.49) rotate(-4.58)"/>
      <ellipse class="cls-7" cx="108.92" cy="250.23" rx="15.96" ry="58.65" transform="translate(-17.19 8.21) rotate(-4)"/>
      <ellipse class="cls-7" cx="108.97" cy="250.2" rx="15.99" ry="58.77" transform="translate(-14.73 6.95) rotate(-3.42)"/>
      <ellipse class="cls-7" cx="109.02" cy="250.16" rx="16.03" ry="58.89" transform="translate(-12.28 5.72) rotate(-2.84)"/>
      <ellipse class="cls-7" cx="109.06" cy="250.13" rx="16.06" ry="59.03" transform="translate(-9.82 4.52) rotate(-2.27)"/>
      <ellipse class="cls-7" cx="109.11" cy="250.1" rx="16.1" ry="59.16" transform="translate(-7.36 3.34) rotate(-1.7)"/>
      <ellipse class="cls-7" cx="109.15" cy="250.07" rx="16.14" ry="59.3" transform="translate(-4.91 2.2) rotate(-1.13)"/>
      <ellipse class="cls-7" cx="109.2" cy="250.03" rx="16.18" ry="59.45" transform="translate(-2.45 1.09) rotate(-.56)"/>
      <ellipse class="cls-7" cx="109.24" cy="250" rx="16.22" ry="59.61"/>
      <ellipse class="cls-7" cx="109.24" cy="249.98" rx="16.96" ry="58.73"/>
      <ellipse class="cls-7" cx="109.24" cy="249.97" rx="17.71" ry="57.85"/>
      <ellipse class="cls-7" cx="109.24" cy="249.95" rx="56.98" ry="18.45" transform="translate(-140.88 358.82) rotate(-89.91)"/>
      <ellipse class="cls-7" cx="109.24" cy="249.94" rx="56.12" ry="19.2" transform="translate(-141 358.49) rotate(-89.84)"/>
      <ellipse class="cls-7" cx="109.24" cy="249.92" rx="55.26" ry="19.94" transform="translate(-141.18 358.03) rotate(-89.74)"/>
      <ellipse class="cls-7" cx="109.24" cy="249.91" rx="54.41" ry="20.69" transform="translate(-141.41 357.44) rotate(-89.61)"/>
      <ellipse class="cls-7" cx="109.24" cy="249.89" rx="53.56" ry="21.43" transform="translate(-141.71 356.68) rotate(-89.44)"/>
      <ellipse class="cls-7" cx="109.24" cy="249.88" rx="52.72" ry="22.18" transform="translate(-142.09 355.74) rotate(-89.23)"/>
      <ellipse class="cls-7" cx="109.24" cy="249.86" rx="51.88" ry="22.92" transform="translate(-142.55 354.58) rotate(-88.97)"/>
      <ellipse class="cls-7" cx="109.24" cy="249.85" rx="51.05" ry="23.66" transform="translate(-143.11 353.17) rotate(-88.65)"/>
      <ellipse class="cls-7" cx="109.24" cy="249.83" rx="50.23" ry="24.4" transform="translate(-143.79 351.47) rotate(-88.27)"/>
      <ellipse class="cls-7" cx="109.24" cy="249.82" rx="49.42" ry="25.13" transform="translate(-144.59 349.4) rotate(-87.8)"/>
      <ellipse class="cls-7" cx="109.24" cy="249.8" rx="48.63" ry="25.86" transform="translate(-145.53 346.91) rotate(-87.24)"/>
      <ellipse class="cls-7" cx="109.24" cy="249.79" rx="47.84" ry="26.58" transform="translate(-146.64 343.9) rotate(-86.57)"/>
      <ellipse class="cls-7" cx="109.24" cy="249.77" rx="47.07" ry="27.29" transform="translate(-147.93 340.25) rotate(-85.76)"/>
      <ellipse class="cls-7" cx="109.24" cy="249.76" rx="46.32" ry="27.98" transform="translate(-149.42 335.83) rotate(-84.78)"/>
      <ellipse class="cls-7" cx="109.24" cy="249.74" rx="45.59" ry="28.66" transform="translate(-151.13 330.45) rotate(-83.6)"/>
      <ellipse class="cls-7" cx="109.24" cy="249.73" rx="44.89" ry="29.32" transform="translate(-153.06 323.87) rotate(-82.16)"/>
      <ellipse class="cls-7" cx="109.24" cy="249.71" rx="44.22" ry="29.95" transform="translate(-155.19 315.8) rotate(-80.4)"/>
      <ellipse class="cls-7" cx="109.24" cy="249.7" rx="43.6" ry="30.54" transform="translate(-157.46 305.87) rotate(-78.27)"/>
      <ellipse class="cls-7" cx="109.23" cy="249.68" rx="43.03" ry="31.08" transform="translate(-159.72 293.69) rotate(-75.66)"/>
      <ellipse class="cls-7" cx="109.23" cy="249.67" rx="42.54" ry="31.55" transform="translate(-161.72 278.88) rotate(-72.52)"/>
      <ellipse class="cls-7" cx="109.23" cy="249.65" rx="42.14" ry="31.93" transform="translate(-163.03 261.21) rotate(-68.8)"/>
      <ellipse class="cls-7" cx="109.23" cy="249.64" rx="41.85" ry="32.21" transform="translate(-163.12 240.86) rotate(-64.52)"/>
      <ellipse class="cls-7" cx="109.23" cy="249.62" rx="41.71" ry="32.35" transform="translate(-161.47 218.61) rotate(-59.83)"/>
      <ellipse class="cls-7" cx="109.23" cy="249.61" rx="41.71" ry="32.35" transform="translate(-157.87 195.84) rotate(-54.98)"/>
      <ellipse class="cls-7" cx="109.23" cy="249.59" rx="41.85" ry="32.21" transform="translate(-152.57 174.17) rotate(-50.29)"/>
      <ellipse class="cls-7" cx="109.23" cy="249.58" rx="42.14" ry="31.93" transform="translate(-146.2 154.85) rotate(-46.01)"/>
      <ellipse class="cls-7" cx="109.23" cy="249.56" rx="42.54" ry="31.55" transform="translate(-139.5 138.46) rotate(-42.29)"/>
      <ellipse class="cls-7" cx="109.23" cy="249.55" rx="43.03" ry="31.08" transform="translate(-133.03 124.99) rotate(-39.15)"/>
      <ellipse class="cls-7" cx="109.23" cy="249.53" rx="43.6" ry="30.54" transform="translate(-127.12 114.12) rotate(-36.55)"/>
      <ellipse class="cls-7" cx="109.23" cy="249.52" rx="44.22" ry="29.95" transform="translate(-121.89 105.39) rotate(-34.41)"/>
      <ellipse class="cls-7" cx="109.23" cy="249.5" rx="44.89" ry="29.32" transform="translate(-117.36 98.38) rotate(-32.66)"/>
      <ellipse class="cls-7" cx="109.23" cy="249.49" rx="45.59" ry="28.66" transform="translate(-113.49 92.73) rotate(-31.22)"/>
      <ellipse class="cls-7" cx="109.23" cy="249.47" rx="46.32" ry="27.98" transform="translate(-110.19 88.16) rotate(-30.03)"/>
      <ellipse class="cls-7" cx="109.23" cy="249.46" rx="47.07" ry="27.29" transform="translate(-107.4 84.43) rotate(-29.05)"/>
      <ellipse class="cls-7" cx="109.23" cy="249.44" rx="47.84" ry="26.58" transform="translate(-105.03 81.38) rotate(-28.24)"/>
      <ellipse class="cls-7" cx="109.23" cy="249.43" rx="48.63" ry="25.86" transform="translate(-103.04 78.88) rotate(-27.57)"/>
      <ellipse class="cls-7" cx="109.23" cy="249.41" rx="49.42" ry="25.13" transform="translate(-101.36 76.81) rotate(-27.01)"/>
      <ellipse class="cls-7" cx="109.23" cy="249.4" rx="50.23" ry="24.4" transform="translate(-99.95 75.11) rotate(-26.55)"/>
      <ellipse class="cls-7" cx="109.23" cy="249.38" rx="51.05" ry="23.66" transform="translate(-98.77 73.71) rotate(-26.16)"/>
      <ellipse class="cls-7" cx="109.23" cy="249.37" rx="51.88" ry="22.92" transform="translate(-97.79 72.56) rotate(-25.85)"/>
      <ellipse class="cls-7" cx="109.23" cy="249.35" rx="52.72" ry="22.18" transform="translate(-96.98 71.63) rotate(-25.59)"/>
      <ellipse class="cls-7" cx="109.23" cy="249.34" rx="53.56" ry="21.43" transform="translate(-96.32 70.87) rotate(-25.38)"/>
      <ellipse class="cls-7" cx="109.23" cy="249.32" rx="54.41" ry="20.69" transform="translate(-95.78 70.26) rotate(-25.21)"/>
      <ellipse class="cls-7" cx="109.23" cy="249.31" rx="55.26" ry="19.94" transform="translate(-95.36 69.78) rotate(-25.07)"/>
      <ellipse class="cls-7" cx="109.23" cy="249.29" rx="56.12" ry="19.2" transform="translate(-95.04 69.42) rotate(-24.97)"/>
      <ellipse class="cls-7" cx="109.23" cy="249.28" rx="56.98" ry="18.45" transform="translate(-94.8 69.16) rotate(-24.9)"/>
      <ellipse class="cls-7" cx="109.22" cy="249.26" rx="57.85" ry="17.71" transform="translate(-94.64 68.98) rotate(-24.85)"/>
      <ellipse class="cls-7" cx="109.22" cy="249.25" rx="58.73" ry="16.96" transform="translate(-94.55 68.88) rotate(-24.82)"/>
      <ellipse class="cls-7" cx="109.22" cy="249.23" rx="59.61" ry="16.22" transform="translate(-94.51 68.85) rotate(-24.81)"/>
      <ellipse class="cls-7" cx="109.23" cy="249.25" rx="59.5" ry="16.19" transform="translate(-93.02 67.18) rotate(-24.34)"/>
      <ellipse class="cls-7" cx="109.24" cy="249.26" rx="59.4" ry="16.16" transform="translate(-91.52 65.52) rotate(-23.87)"/>
      <ellipse class="cls-7" cx="109.25" cy="249.28" rx="59.3" ry="16.14" transform="translate(-89.99 63.86) rotate(-23.39)"/>
      <ellipse class="cls-7" cx="109.25" cy="249.29" rx="59.21" ry="16.11" transform="translate(-88.44 62.21) rotate(-22.92)"/>
      <ellipse class="cls-7" cx="109.26" cy="249.31" rx="59.12" ry="16.09" transform="translate(-86.88 60.57) rotate(-22.44)"/>
      <ellipse class="cls-7" cx="109.27" cy="249.32" rx="59.03" ry="16.06" transform="translate(-85.3 58.94) rotate(-21.96)"/>
      <ellipse class="cls-7" cx="109.28" cy="249.34" rx="58.95" ry="16.04" transform="translate(-83.7 57.32) rotate(-21.48)"/>
      <ellipse class="cls-7" cx="109.28" cy="249.35" rx="58.87" ry="16.02" transform="translate(-82.08 55.7) rotate(-20.99)"/>
      <ellipse class="cls-7" cx="109.29" cy="249.37" rx="58.8" ry="16" transform="translate(-80.44 54.1) rotate(-20.51)"/>
      <ellipse class="cls-7" cx="109.3" cy="249.38" rx="58.73" ry="15.98" transform="translate(-78.78 52.5) rotate(-20.02)"/>
      <ellipse class="cls-7" cx="109.31" cy="249.4" rx="58.67" ry="15.96" transform="translate(-77.11 50.91) rotate(-19.54)"/>
      <ellipse class="cls-7" cx="109.31" cy="249.41" rx="58.61" ry="15.95" transform="translate(-75.42 49.34) rotate(-19.05)"/>
      <ellipse class="cls-7" cx="109.32" cy="249.43" rx="58.55" ry="15.93" transform="translate(-73.71 47.78) rotate(-18.56)"/>
      <ellipse class="cls-7" cx="109.33" cy="249.44" rx="58.5" ry="15.92" transform="translate(-71.99 46.22) rotate(-18.07)"/>
      <ellipse class="cls-7" cx="109.34" cy="249.46" rx="58.45" ry="15.91" transform="translate(-70.25 44.68) rotate(-17.58)"/>
      <ellipse class="cls-7" cx="109.34" cy="249.47" rx="58.41" ry="15.89" transform="translate(-68.49 43.16) rotate(-17.09)"/>
      <ellipse class="cls-7" cx="109.35" cy="249.49" rx="58.37" ry="15.88" transform="translate(-66.72 41.64) rotate(-16.6)"/>
      <ellipse class="cls-7" cx="109.36" cy="249.5" rx="58.34" ry="15.87" transform="translate(-64.94 40.14) rotate(-16.11)"/>
      <ellipse class="cls-7" cx="109.37" cy="249.52" rx="58.3" ry="15.87" transform="translate(-63.13 38.65) rotate(-15.62)"/>
      <ellipse class="cls-7" cx="109.37" cy="249.53" rx="58.28" ry="15.86" transform="translate(-61.32 37.18) rotate(-15.12)"/>
      <ellipse class="cls-7" cx="109.38" cy="249.55" rx="58.26" ry="15.85" transform="translate(-59.48 35.72) rotate(-14.63)"/>
      <ellipse class="cls-7" cx="109.39" cy="249.56" rx="58.24" ry="15.85" transform="translate(-57.64 34.27) rotate(-14.14)"/>
      <ellipse class="cls-7" cx="109.4" cy="249.58" rx="58.23" ry="15.84" transform="translate(-55.78 32.84) rotate(-13.64)"/>
      <ellipse class="cls-7" cx="109.4" cy="249.59" rx="58.22" ry="15.84" transform="translate(-53.91 31.43) rotate(-13.15)"/>
      <ellipse class="cls-7" cx="109.41" cy="249.61" rx="58.21" ry="15.84" transform="translate(-52.02 30.03) rotate(-12.65)"/>
      <ellipse class="cls-7" cx="109.42" cy="249.62" rx="58.21" ry="15.84" transform="translate(-50.13 28.65) rotate(-12.16)"/>
      <ellipse class="cls-7" cx="109.43" cy="249.64" rx="58.22" ry="15.84" transform="translate(-48.22 27.28) rotate(-11.67)"/>
      <ellipse class="cls-7" cx="109.43" cy="249.65" rx="58.23" ry="15.84" transform="translate(-46.3 25.93) rotate(-11.17)"/>
      <ellipse class="cls-7" cx="109.44" cy="249.67" rx="58.24" ry="15.85" transform="translate(-44.36 24.6) rotate(-10.68)"/>
      <ellipse class="cls-7" cx="109.45" cy="249.68" rx="58.26" ry="15.85" transform="translate(-42.42 23.28) rotate(-10.18)"/>
      <ellipse class="cls-7" cx="109.46" cy="249.7" rx="58.28" ry="15.86" transform="translate(-40.47 21.99) rotate(-9.69)"/>
      <ellipse class="cls-7" cx="109.46" cy="249.71" rx="58.3" ry="15.87" transform="translate(-38.51 20.71) rotate(-9.2)"/>
      <ellipse class="cls-7" cx="109.47" cy="249.73" rx="58.34" ry="15.87" transform="translate(-36.53 19.44) rotate(-8.7)"/>
      <ellipse class="cls-7" cx="109.48" cy="249.74" rx="58.37" ry="15.88" transform="translate(-34.55 18.2) rotate(-8.21)"/>
      <ellipse class="cls-7" cx="109.49" cy="249.76" rx="58.41" ry="15.89" transform="translate(-32.56 16.98) rotate(-7.72)"/>
      <ellipse class="cls-7" cx="109.49" cy="249.77" rx="58.45" ry="15.91" transform="translate(-30.57 15.77) rotate(-7.23)"/>
      <ellipse class="cls-7" cx="109.5" cy="249.79" rx="58.5" ry="15.92" transform="translate(-28.56 14.58) rotate(-6.74)"/>
      <ellipse class="cls-7" cx="109.51" cy="249.8" rx="58.55" ry="15.93" transform="translate(-26.55 13.41) rotate(-6.25)"/>
      <ellipse class="cls-7" cx="109.52" cy="249.82" rx="58.61" ry="15.95" transform="translate(-24.54 12.26) rotate(-5.76)"/>
      <ellipse class="cls-7" cx="109.52" cy="249.83" rx="58.67" ry="15.96" transform="translate(-22.51 11.13) rotate(-5.28)"/>
      <ellipse class="cls-7" cx="109.53" cy="249.85" rx="58.73" ry="15.98" transform="translate(-20.48 10.02) rotate(-4.79)"/>
      <ellipse class="cls-7" cx="109.54" cy="249.86" rx="58.8" ry="16" transform="translate(-18.45 8.93) rotate(-4.31)"/>
      <ellipse class="cls-7" cx="109.55" cy="249.88" rx="58.87" ry="16.02" transform="translate(-16.41 7.86) rotate(-3.82)"/>
      <ellipse class="cls-7" cx="109.55" cy="249.89" rx="58.95" ry="16.04" transform="translate(-14.37 6.8) rotate(-3.34)"/>
      <ellipse class="cls-7" cx="109.56" cy="249.91" rx="59.03" ry="16.06" transform="translate(-12.32 5.77) rotate(-2.86)"/>
      <ellipse class="cls-7" cx="109.57" cy="249.92" rx="59.12" ry="16.09" transform="translate(-10.27 4.76) rotate(-2.38)"/>
      <ellipse class="cls-7" cx="109.58" cy="249.94" rx="59.21" ry="16.11" transform="translate(-8.22 3.77) rotate(-1.9)"/>
      <ellipse class="cls-7" cx="109.58" cy="249.95" rx="59.3" ry="16.14" transform="translate(-6.17 2.8) rotate(-1.42)"/>
      <ellipse class="cls-7" cx="109.59" cy="249.97" rx="59.4" ry="16.16" transform="translate(-4.11 1.84) rotate(-.95)"/>
      <ellipse class="cls-7" cx="109.6" cy="249.98" rx="59.5" ry="16.19" transform="translate(-2.06 .91) rotate(-.47)"/>
      <ellipse class="cls-7" cx="109.61" cy="250" rx="59.61" ry="16.22"/>
      <ellipse class="cls-7" cx="109.6" cy="250" rx="16.13" ry="59.27" transform="translate(-141.9 356.11) rotate(-89.2)"/>
      <ellipse class="cls-7" cx="109.6" cy="250" rx="16.04" ry="58.94" transform="translate(-143.38 352.55) rotate(-88.39)"/>
      <ellipse class="cls-7" cx="109.6" cy="250" rx="15.95" ry="58.63" transform="translate(-144.82 348.93) rotate(-87.58)"/>
      <ellipse class="cls-7" cx="109.59" cy="250.01" rx="15.87" ry="58.33" transform="translate(-146.22 345.25) rotate(-86.75)"/>
      <ellipse class="cls-7" cx="109.59" cy="250.01" rx="15.79" ry="58.04" transform="translate(-147.59 341.52) rotate(-85.92)"/>
      <ellipse class="cls-7" cx="109.58" cy="250.01" rx="15.72" ry="57.76" transform="translate(-148.91 337.73) rotate(-85.08)"/>
      <ellipse class="cls-7" cx="109.58" cy="250.01" rx="15.65" ry="57.5" transform="translate(-150.19 333.88) rotate(-84.23)"/>
      <ellipse class="cls-7" cx="109.58" cy="250.01" rx="15.58" ry="57.25" transform="translate(-151.42 329.98) rotate(-83.37)"/>
      <ellipse class="cls-7" cx="109.57" cy="250.01" rx="15.51" ry="57.01" transform="translate(-152.6 326.03) rotate(-82.5)"/>
      <ellipse class="cls-7" cx="109.57" cy="250.02" rx="15.45" ry="56.79" transform="translate(-153.73 322.03) rotate(-81.63)"/>
      <ellipse class="cls-7" cx="109.57" cy="250.02" rx="15.39" ry="56.57" transform="translate(-154.81 317.99) rotate(-80.75)"/>
      <ellipse class="cls-7" cx="109.56" cy="250.02" rx="15.34" ry="56.38" transform="translate(-155.83 313.89) rotate(-79.87)"/>
      <ellipse class="cls-7" cx="109.56" cy="250.02" rx="15.29" ry="56.19" transform="translate(-156.79 309.76) rotate(-78.98)"/>
      <ellipse class="cls-7" cx="109.56" cy="250.02" rx="15.24" ry="56.02" transform="translate(-157.7 305.58) rotate(-78.08)"/>
      <ellipse class="cls-7" cx="109.55" cy="250.02" rx="15.2" ry="55.86" transform="translate(-158.55 301.36) rotate(-77.18)"/>
      <ellipse class="cls-7" cx="109.55" cy="250.02" rx="15.16" ry="55.72" transform="translate(-159.33 297.11) rotate(-76.27)"/>
      <ellipse class="cls-7" cx="109.55" cy="250.03" rx="15.13" ry="55.59" transform="translate(-160.05 292.83) rotate(-75.36)"/>
      <ellipse class="cls-7" cx="109.54" cy="250.03" rx="15.1" ry="55.48" transform="translate(-160.7 288.52) rotate(-74.45)"/>
      <ellipse class="cls-7" cx="109.54" cy="250.03" rx="15.07" ry="55.37" transform="translate(-161.29 284.17) rotate(-73.53)"/>
      <ellipse class="cls-7" cx="109.54" cy="250.03" rx="15.04" ry="55.29" transform="translate(-161.81 279.81) rotate(-72.61)"/>
      <ellipse class="cls-7" cx="109.53" cy="250.03" rx="15.02" ry="55.22" transform="translate(-162.26 275.43) rotate(-71.68)"/>
      <ellipse class="cls-7" cx="109.53" cy="250.03" rx="15.01" ry="55.16" transform="translate(-162.63 271.02) rotate(-70.75)"/>
      <ellipse class="cls-7" cx="109.53" cy="250.04" rx="15" ry="55.11" transform="translate(-162.94 266.61) rotate(-69.83)"/>
      <ellipse class="cls-7" cx="109.52" cy="250.04" rx="14.99" ry="55.08" transform="translate(-163.18 262.18) rotate(-68.9)"/>
      <ellipse class="cls-7" cx="109.52" cy="250.04" rx="14.99" ry="55.07" transform="translate(-163.34 257.75) rotate(-67.97)"/>
      <ellipse class="cls-7" cx="109.52" cy="250.04" rx="14.99" ry="55.07" transform="translate(-163.44 253.32) rotate(-67.03)"/>
      <ellipse class="cls-7" cx="109.51" cy="250.04" rx="14.99" ry="55.08" transform="translate(-163.46 248.88) rotate(-66.1)"/>
      <ellipse class="cls-7" cx="109.51" cy="250.04" rx="15" ry="55.11" transform="translate(-163.41 244.45) rotate(-65.17)"/>
      <ellipse class="cls-7" cx="109.51" cy="250.05" rx="15.01" ry="55.16" transform="translate(-163.28 240.03) rotate(-64.25)"/>
      <ellipse class="cls-7" cx="109.5" cy="250.05" rx="15.02" ry="55.22" transform="translate(-163.09 235.61) rotate(-63.32)"/>
      <ellipse class="cls-7" cx="109.5" cy="250.05" rx="15.04" ry="55.29" transform="translate(-162.82 231.21) rotate(-62.39)"/>
      <ellipse class="cls-7" cx="109.5" cy="250.05" rx="15.07" ry="55.37" transform="translate(-162.49 226.83) rotate(-61.47)"/>
      <ellipse class="cls-7" cx="109.49" cy="250.05" rx="15.1" ry="55.48" transform="translate(-162.08 222.47) rotate(-60.55)"/>
      <ellipse class="cls-7" cx="109.49" cy="250.05" rx="15.13" ry="55.59" transform="translate(-161.61 218.14) rotate(-59.64)"/>
      <ellipse class="cls-7" cx="109.49" cy="250.05" rx="15.16" ry="55.72" transform="translate(-161.07 213.83) rotate(-58.73)"/>
      <ellipse class="cls-7" cx="109.48" cy="250.06" rx="15.2" ry="55.86" transform="translate(-160.47 209.55) rotate(-57.82)"/>
      <ellipse class="cls-7" cx="109.48" cy="250.06" rx="15.24" ry="56.02" transform="translate(-159.8 205.3) rotate(-56.92)"/>
      <ellipse class="cls-7" cx="109.48" cy="250.06" rx="15.29" ry="56.19" transform="translate(-159.07 201.09) rotate(-56.02)"/>
      <ellipse class="cls-7" cx="109.47" cy="250.06" rx="15.34" ry="56.38" transform="translate(-158.28 196.92) rotate(-55.13)"/>
      <ellipse class="cls-7" cx="109.47" cy="250.06" rx="15.39" ry="56.57" transform="translate(-157.43 192.79) rotate(-54.25)"/>
      <ellipse class="cls-7" cx="109.46" cy="250.06" rx="15.45" ry="56.79" transform="translate(-156.52 188.7) rotate(-53.37)"/>
      <ellipse class="cls-7" cx="109.46" cy="250.07" rx="15.51" ry="57.01" transform="translate(-155.56 184.66) rotate(-52.5)"/>
      <ellipse class="cls-7" cx="109.46" cy="250.07" rx="15.58" ry="57.25" transform="translate(-154.55 180.66) rotate(-51.63)"/>
      <ellipse class="cls-7" cx="109.45" cy="250.07" rx="15.65" ry="57.5" transform="translate(-153.48 176.72) rotate(-50.77)"/>
      <ellipse class="cls-7" cx="109.45" cy="250.07" rx="15.72" ry="57.76" transform="translate(-152.37 172.83) rotate(-49.92)"/>
      <ellipse class="cls-7" cx="109.45" cy="250.07" rx="15.79" ry="58.04" transform="translate(-151.2 168.99) rotate(-49.08)"/>
      <ellipse class="cls-7" cx="109.44" cy="250.07" rx="15.87" ry="58.33" transform="translate(-150 165.2) rotate(-48.25)"/>
      <ellipse class="cls-7" cx="109.44" cy="250.07" rx="15.95" ry="58.63" transform="translate(-148.75 161.47) rotate(-47.42)"/>
      <ellipse class="cls-7" cx="109.44" cy="250.08" rx="16.04" ry="58.94" transform="translate(-147.47 157.8) rotate(-46.61)"/>
      <ellipse class="cls-7" cx="109.43" cy="250.08" rx="16.13" ry="59.27" transform="translate(-146.14 154.18) rotate(-45.8)"/>
      <ellipse class="cls-7" cx="109.43" cy="250.08" rx="16.22" ry="59.61" transform="translate(-144.78 150.62) rotate(-45)"/>
    </g>
    <text class="cls-1" transform="translate(181.98 265.44)"><tspan x="0" y="0">OPTISOFT</tspan></text>
    <text class="cls-2" transform="translate(184.58 285.87)"><tspan class="cls-3" x="0" y="0">W</tspan><tspan class="cls-4" x="13.3" y="0">he</tspan><tspan class="cls-11" x="33.44" y="0">r</tspan><tspan class="cls-9" x="41.34" y="0">e</tspan><tspan class="cls-10" x="51.13" y="0"> </tspan><tspan class="cls-6" x="57.58" y="0">V</tspan><tspan class="cls-14" x="67.8" y="0">ision </tspan><tspan class="cls-5" x="118.06" y="0">M</tspan><tspan class="cls-4" x="131.03" y="0">eets</tspan><tspan class="cls-8" x="167.38" y="0"> </tspan><tspan class="cls-13" x="173.77" y="0">T</tspan><tspan class="cls-4" x="182.8" y="0">echnology</tspan></text>
  </g>
</svg>